<svg width="22" height="22" viewBox="0 0 22 22" fill="none" xmlns="http://www.w3.org/2000/svg">
<mask id="mask0_2778_261" style="mask-type:luminance" maskUnits="userSpaceOnUse" x="0" y="0" width="22" height="22">
<path d="M22 0H0V22H22V0Z" fill="white"/>
</mask>
<g mask="url(#mask0_2778_261)">
<path d="M11.0005 12.1923C10.8813 12.1923 10.7622 12.1649 10.6522 12.1007L2.55806 7.41656C2.22806 7.22406 2.11804 6.80236 2.31054 6.47236C2.50304 6.14236 2.91554 6.03234 3.2547 6.22484L11.0005 10.7073L18.7005 6.25237C19.0305 6.05987 19.4522 6.17906 19.6447 6.49989C19.8372 6.82989 19.718 7.25153 19.3972 7.44403L11.3581 12.1007C11.2389 12.1557 11.1197 12.1923 11.0005 12.1923Z" fill="#E7F4F3"/>
<path d="M11 20.4957C10.6242 20.4957 10.3125 20.184 10.3125 19.8082V11.494C10.3125 11.1182 10.6242 10.8065 11 10.8065C11.3758 10.8065 11.6875 11.1182 11.6875 11.494V19.8082C11.6875 20.184 11.3758 20.4957 11 20.4957Z" fill="#E7F4F3"/>
<path d="M11 20.8543C10.1933 20.8543 9.38666 20.6801 8.76331 20.3226L3.86831 17.6094C2.53914 16.8761 1.49414 15.1068 1.49414 13.5851V8.39682C1.49414 6.87516 2.53914 5.1152 3.86831 4.3727L8.76331 1.65934C10.01 0.962674 11.9717 0.962674 13.2275 1.65934L18.1225 4.3727C19.4517 5.10603 20.4967 6.87516 20.4967 8.39682V13.5851C20.4967 13.6493 20.4967 13.741 20.4692 13.8601C20.4142 14.0985 20.24 14.291 20.0108 14.3643C19.7817 14.4376 19.525 14.3919 19.3417 14.2269C18.2967 13.3102 16.665 13.2735 15.5467 14.1626C14.8408 14.7218 14.4283 15.5743 14.4283 16.4818C14.4283 17.0226 14.575 17.5544 14.8592 18.0127C14.9325 18.1411 15.0058 18.2418 15.0883 18.3335C15.2258 18.4893 15.2808 18.7001 15.2442 18.9018C15.2075 19.1035 15.0792 19.2869 14.8958 19.3786L13.2183 20.3044C12.6042 20.6802 11.8067 20.8543 11 20.8543ZM11 2.52102C10.4317 2.52102 9.85416 2.64018 9.44166 2.86935L4.54663 5.5827C3.65746 6.0777 2.88746 7.38849 2.88746 8.39682V13.5851C2.88746 14.5935 3.66663 15.9136 4.54663 16.3994L9.44166 19.1126C10.2758 19.5801 11.7333 19.5801 12.5675 19.1126L13.5942 18.5443C13.255 17.9301 13.0717 17.2151 13.0717 16.4818C13.0717 15.1435 13.6675 13.9061 14.7033 13.0811C15.9592 12.0819 17.7375 11.871 19.1308 12.476V8.3877C19.1308 7.37937 18.3517 6.05936 17.4717 5.57353L12.5767 2.86017C12.1458 2.64017 11.5683 2.52102 11 2.52102Z" fill="#E7F4F3"/>
<path d="M17.4167 20.8541C15.015 20.8541 13.0625 18.9016 13.0625 16.4999C13.0625 15.1616 13.6583 13.9241 14.6942 13.0991C15.4642 12.4849 16.4358 12.1458 17.4167 12.1458C19.8183 12.1458 21.7708 14.0983 21.7708 16.4999C21.7708 17.7466 21.23 18.9383 20.2858 19.7633C19.4883 20.4691 18.4708 20.8541 17.4167 20.8541ZM17.4167 13.5208C16.7383 13.5208 16.0967 13.7499 15.5558 14.1808C14.85 14.7399 14.4375 15.5924 14.4375 16.4999C14.4375 18.1408 15.7758 19.4791 17.4167 19.4791C18.1317 19.4791 18.8283 19.2133 19.3875 18.7366C20.0292 18.1683 20.3958 17.3616 20.3958 16.4999C20.3958 14.8591 19.0575 13.5208 17.4167 13.5208Z" fill="#E7F4F3"/>
<path d="M16.5002 18.104C16.2711 18.104 16.0419 17.9848 15.9136 17.774C15.7211 17.444 15.8219 17.0223 16.1519 16.8298L16.9677 16.344V15.354C16.9677 14.9782 17.2794 14.6665 17.6552 14.6665C18.0311 14.6665 18.3427 14.9782 18.3427 15.354V16.729C18.3427 16.9673 18.2144 17.1965 18.0127 17.3157L16.8669 18.0032C16.7386 18.0765 16.6194 18.104 16.5002 18.104Z" fill="#E7F4F3"/>
</g>
</svg>
