<svg width="18" height="18" viewBox="0 0 18 18" fill="none" xmlns="http://www.w3.org/2000/svg">
<g clip-path="url(#clip0_2778_2662)">
<mask id="mask0_2778_2662" style="mask-type:luminance" maskUnits="userSpaceOnUse" x="0" y="0" width="18" height="18">
<path d="M18 0H0V18H18V0Z" fill="white"/>
</mask>
<g mask="url(#mask0_2778_2662)">
<path d="M3.75 7.5H5.25C6.75 7.5 7.5 6.75 7.5 5.25V3.75C7.5 2.25 6.75 1.5 5.25 1.5H3.75C2.25 1.5 1.5 2.25 1.5 3.75V5.25C1.5 6.75 2.25 7.5 3.75 7.5Z" stroke="#E7F4F3" stroke-width="1.5" stroke-miterlimit="10" stroke-linecap="round" stroke-linejoin="round"/>
<path d="M12.75 7.5H14.25C15.75 7.5 16.5 6.75 16.5 5.25V3.75C16.5 2.25 15.75 1.5 14.25 1.5H12.75C11.25 1.5 10.5 2.25 10.5 3.75V5.25C10.5 6.75 11.25 7.5 12.75 7.5Z" stroke="#E7F4F3" stroke-width="1.5" stroke-miterlimit="10" stroke-linecap="round" stroke-linejoin="round"/>
<path d="M12.75 16.5H14.25C15.75 16.5 16.5 15.75 16.5 14.25V12.75C16.5 11.25 15.75 10.5 14.25 10.5H12.75C11.25 10.5 10.5 11.25 10.5 12.75V14.25C10.5 15.75 11.25 16.5 12.75 16.5Z" stroke="#E7F4F3" stroke-width="1.5" stroke-miterlimit="10" stroke-linecap="round" stroke-linejoin="round"/>
<path d="M3.75 16.5H5.25C6.75 16.5 7.5 15.75 7.5 14.25V12.75C7.5 11.25 6.75 10.5 5.25 10.5H3.75C2.25 10.5 1.5 11.25 1.5 12.75V14.25C1.5 15.75 2.25 16.5 3.75 16.5Z" stroke="#E7F4F3" stroke-width="1.5" stroke-miterlimit="10" stroke-linecap="round" stroke-linejoin="round"/>
</g>
</g>
<defs>
<clipPath id="clip0_2778_2662">
<rect width="18" height="18" fill="white"/>
</clipPath>
</defs>
</svg>
