<svg width="20" height="16" viewBox="0 0 20 16" fill="none" xmlns="http://www.w3.org/2000/svg">
<path d="M15.9949 14.7H17.4898C18.5943 14.7 19.5566 13.776 19.2057 12.7286C18.671 11.1325 17.3553 10.1673 15.0424 9.83291M11.9899 6.5645C12.2808 6.65648 12.6141 6.70001 12.9898 6.70001C14.6564 6.70001 15.4898 5.84287 15.4898 3.70001C15.4898 1.55716 14.6564 0.700012 12.9898 0.700012C12.6141 0.700012 12.2808 0.743549 11.9899 0.835529M6.98975 9.70001C10.6032 9.70001 12.5293 10.7096 13.2057 12.7286C13.5566 13.776 12.5943 14.7 11.4897 14.7H2.48975C1.38518 14.7 0.422853 13.776 0.773751 12.7286C1.45021 10.7096 3.37629 9.70001 6.98975 9.70001ZM6.98975 6.70001C8.65641 6.70001 9.48975 5.84287 9.48975 3.70001C9.48975 1.55716 8.65641 0.700012 6.98975 0.700012C5.32308 0.700012 4.48975 1.55716 4.48975 3.70001C4.48975 5.84287 5.32308 6.70001 6.98975 6.70001Z" stroke="#E7F4F3" stroke-width="1.4" stroke-linecap="round" stroke-linejoin="round"/>
</svg>
