<svg width="20" height="16" viewBox="0 0 20 16" fill="none" xmlns="http://www.w3.org/2000/svg">
<path d="M15.9949 14.7002H17.4898C18.5943 14.7002 19.5566 13.7762 19.2057 12.7288C18.671 11.1327 17.3553 10.1674 15.0424 9.83309M11.9899 6.56468C12.2808 6.65666 12.6141 6.7002 12.9898 6.7002C14.6564 6.7002 15.4898 5.84305 15.4898 3.7002C15.4898 1.55734 14.6564 0.700195 12.9898 0.700195C12.6141 0.700195 12.2808 0.743732 11.9899 0.835712M6.98975 9.7002C10.6032 9.7002 12.5293 10.7097 13.2057 12.7288C13.5566 13.7762 12.5943 14.7002 11.4897 14.7002H2.48975C1.38518 14.7002 0.422853 13.7762 0.773751 12.7288C1.45021 10.7097 3.37629 9.7002 6.98975 9.7002ZM6.98975 6.7002C8.65641 6.7002 9.48975 5.84305 9.48975 3.7002C9.48975 1.55734 8.65641 0.700195 6.98975 0.700195C5.32308 0.700195 4.48975 1.55734 4.48975 3.7002C4.48975 5.84305 5.32308 6.7002 6.98975 6.7002Z" stroke="#E7F4F3" stroke-width="1.4" stroke-linecap="round" stroke-linejoin="round"/>
</svg>
