<svg width="20" height="20" viewBox="0 0 20 20" fill="none" xmlns="http://www.w3.org/2000/svg">
<path d="M14.5 15.4167H10.8333L6.75416 18.13C6.14916 18.5333 5.33333 18.1026 5.33333 17.3693V15.4167C2.58333 15.4167 0.75 13.5833 0.75 10.8333V5.33333C0.75 2.58333 2.58333 0.75 5.33333 0.75H14.5C17.25 0.75 19.0833 2.58333 19.0833 5.33333V10.8333C19.0833 13.5833 17.25 15.4167 14.5 15.4167Z" stroke="#E7F4F3" stroke-width="1.5" stroke-miterlimit="10" stroke-linecap="round" stroke-linejoin="round"/>
<path d="M9.91669 8.93557V8.74307C9.91669 8.11973 10.3017 7.78973 10.6867 7.5239C11.0625 7.26723 11.4383 6.93724 11.4383 6.33224C11.4383 5.48891 10.76 4.81055 9.91669 4.81055C9.07335 4.81055 8.39502 5.48891 8.39502 6.33224" stroke="#E7F4F3" stroke-width="1.5" stroke-linecap="round" stroke-linejoin="round"/>
<path d="M9.91211 11.127H9.92111" stroke="#E7F4F3" stroke-width="1.5" stroke-linecap="round" stroke-linejoin="round"/>
</svg>
