<svg width="18" height="20" viewBox="0 0 18 20" fill="none" xmlns="http://www.w3.org/2000/svg">
<path d="M2.58333 0.75L14.6833 0.75C15.6917 0.75 16.5167 1.575 16.5167 2.58333V4.6C16.5167 5.33333 16.0583 6.25 15.6 6.70833L11.6583 10.1917C11.1083 10.65 10.7417 11.5667 10.7417 12.3V16.2417C10.7417 16.7917 10.375 17.525 9.91667 17.8L8.63333 18.625C7.44167 19.3583 5.79167 18.5333 5.79167 17.0667V12.2083C5.79167 11.5667 5.425 10.7417 5.05833 10.2833L1.575 6.61667C1.11667 6.15833 0.75 5.33333 0.75 4.78333L0.75 2.675C0.75 1.575 1.575 0.75 2.58333 0.75Z" stroke="white" stroke-width="1.5" stroke-miterlimit="10" stroke-linecap="round" stroke-linejoin="round"/>
<path opacity="0.4" d="M7.65247 0.75L3.1333 7.99167" stroke="white" stroke-width="1.5" stroke-miterlimit="10" stroke-linecap="round" stroke-linejoin="round"/>
</svg>
