<svg width="157" height="46" viewBox="0 0 157 46" fill="none" xmlns="http://www.w3.org/2000/svg">
<circle cx="21.5" cy="21.5" r="21.5" fill="white"/>
<path d="M24.8 19.16V21.6C23.8667 21.5467 23.04 21.52 22.32 21.52C21.6267 21.4933 20.96 21.48 20.32 21.48C19.68 21.48 19.0133 21.4933 18.32 21.52C17.6533 21.52 16.88 21.5467 16 21.6V19.16C16.9333 19.1867 17.7333 19.2267 18.4 19.28C19.0933 19.3067 19.76 19.32 20.4 19.32C21.04 19.32 21.7067 19.3067 22.4 19.28C23.0933 19.2267 23.8933 19.1867 24.8 19.16ZM26.16 15.6C26.1333 16.4 26.1067 17.2533 26.08 18.16C26.0533 19.04 26.04 19.9067 26.04 20.76C26.04 22.5467 26.08 24 26.16 25.12H24.28L23.48 21.2V19.52L24.28 15.6H26.16ZM31.12 34C29.9467 33.9467 28.5467 33.92 26.92 33.92C25.32 33.8933 23.6533 33.88 21.92 33.88C19.9733 33.88 18.08 33.8933 16.24 33.92C14.4267 33.92 12.7867 33.9467 11.32 34L10.92 32.8L14.44 31.96C14.4933 29.8 14.5333 27.6267 14.56 25.44C14.6133 23.2267 14.64 21.0667 14.64 18.96C14.64 17.28 14.6267 15.6667 14.6 14.12C14.5733 12.5467 14.52 11.0667 14.44 9.68L10.92 8.84L11.32 7.6C12.6533 7.65333 14.1467 7.69333 15.8 7.72C17.48 7.74667 19.2133 7.76 21 7.76C22.9733 7.76 24.8267 7.74667 26.56 7.72C28.2933 7.69333 29.6533 7.65333 30.64 7.6C30.56 8.88 30.4933 10.1867 30.44 11.52C30.3867 12.8533 30.3467 14.0267 30.32 15.04H28.44L27.64 10.56C26.7333 10.2667 25.8 10.0667 24.84 9.96C23.88 9.82667 22.8933 9.76 21.88 9.76C21.2933 9.76 20.68 9.78667 20.04 9.84C19.4267 9.86667 18.8 9.90667 18.16 9.96C18.1333 12.5467 18.1067 14.96 18.08 17.2C18.08 19.4133 18.08 21.5067 18.08 23.48C18.08 24.7067 18.08 26.0533 18.08 27.52C18.1067 28.9867 18.1333 30.4133 18.16 31.8C18.8 31.8533 19.44 31.9067 20.08 31.96C20.7467 31.9867 21.4 32 22.04 32C23.1333 32 24.1867 31.9333 25.2 31.8C26.2133 31.6667 27.1733 31.4667 28.08 31.2L28.88 26.6H30.76C30.76 27.8267 30.7867 29.0267 30.84 30.2C30.92 31.3733 31.0133 32.64 31.12 34Z" fill="#0D9488"/>
<rect x="23" y="19" width="20" height="3" rx="1.5" fill="#0D9488"/>
<path d="M53.2 24.344C52.656 24.84 52.008 25.264 51.256 25.616C50.52 25.968 49.672 26.144 48.712 26.144C47.56 26.144 46.592 25.888 45.808 25.376C45.04 24.864 44.464 24.208 44.08 23.408C43.696 22.608 43.504 21.768 43.504 20.888C43.504 19.992 43.704 19.136 44.104 18.32C44.504 17.504 45.104 16.84 45.904 16.328C46.72 15.8 47.752 15.536 49 15.536C49.672 15.536 50.328 15.616 50.968 15.776C51.624 15.92 52.248 16.176 52.84 16.544C52.616 17.376 52.456 18.064 52.36 18.608C52.264 19.136 52.168 19.64 52.072 20.12H50.872L50.512 17.936C50.112 17.6 49.656 17.336 49.144 17.144C48.632 16.952 48.12 16.872 47.608 16.904C47.272 17.304 47.008 17.776 46.816 18.32C46.64 18.864 46.552 19.424 46.552 20C46.552 20.864 46.704 21.608 47.008 22.232C47.312 22.856 47.712 23.344 48.208 23.696C48.72 24.032 49.272 24.2 49.864 24.2C50.264 24.2 50.688 24.12 51.136 23.96C51.6 23.784 52.072 23.52 52.552 23.168L53.2 24.344ZM59.3138 26.24C58.1138 26.24 57.1058 25.992 56.2898 25.496C55.4738 24.984 54.8578 24.312 54.4418 23.48C54.0258 22.648 53.8178 21.76 53.8178 20.816C53.8178 19.888 54.0178 19.032 54.4178 18.248C54.8338 17.448 55.4498 16.808 56.2658 16.328C57.0978 15.832 58.1378 15.584 59.3858 15.584C60.5698 15.584 61.5538 15.832 62.3378 16.328C63.1378 16.824 63.7298 17.472 64.1138 18.272C64.5138 19.072 64.7138 19.936 64.7138 20.864C64.7138 21.808 64.5138 22.696 64.1138 23.528C63.7138 24.344 63.1138 25 62.3138 25.496C61.5138 25.992 60.5138 26.24 59.3138 26.24ZM59.6018 25.016C60.2098 25.016 60.6578 24.688 60.9458 24.032C61.2498 23.36 61.4018 22.528 61.4018 21.536C61.4018 20.736 61.3058 19.984 61.1138 19.28C60.9378 18.56 60.6658 17.976 60.2978 17.528C59.9458 17.064 59.5058 16.832 58.9778 16.832C58.3698 16.832 57.9138 17.168 57.6098 17.84C57.3218 18.496 57.1778 19.32 57.1778 20.312C57.1778 21.112 57.2658 21.872 57.4418 22.592C57.6338 23.312 57.9138 23.896 58.2818 24.344C58.6498 24.792 59.0898 25.016 59.6018 25.016ZM74.6986 15.56C75.6746 15.56 76.4506 15.904 77.0266 16.592C77.6186 17.28 77.9466 18.192 78.0106 19.328C78.0426 19.616 78.0506 20.064 78.0346 20.672C78.0186 21.264 78.0026 21.92 77.9866 22.64C77.9866 23.344 77.9866 24 77.9866 24.608L79.7626 25.112L79.4266 26C78.9946 25.968 78.5066 25.952 77.9626 25.952C77.4346 25.936 76.8826 25.928 76.3066 25.928C75.7626 25.928 75.2426 25.936 74.7466 25.952C74.2506 25.968 73.7946 25.984 73.3786 26L73.0426 25.112L74.8186 24.608C74.8346 24.064 74.8506 23.616 74.8666 23.264C74.8826 22.896 74.8906 22.536 74.8906 22.184C74.9066 21.816 74.9066 21.376 74.8906 20.864C74.8746 19.696 74.6746 18.904 74.2906 18.488C73.9226 18.056 73.3626 17.84 72.6106 17.84C71.9066 18.304 71.4186 18.88 71.1466 19.568C70.8746 20.24 70.7466 20.864 70.7626 21.44L69.8746 20.432C69.9866 19.504 70.2586 18.68 70.6906 17.96C71.1226 17.224 71.6826 16.64 72.3706 16.208C73.0746 15.776 73.8506 15.56 74.6986 15.56ZM70.7626 15.488C70.7626 16.016 70.7626 16.456 70.7626 16.808C70.7626 17.144 70.7626 17.48 70.7626 17.816C70.7626 18.152 70.7546 18.592 70.7386 19.136L70.7866 24.608L72.5386 25.112L72.2266 26C71.6986 25.968 71.1786 25.952 70.6666 25.952C70.1546 25.936 69.6186 25.928 69.0586 25.928C68.4986 25.928 67.9946 25.936 67.5466 25.952C67.1146 25.968 66.6586 25.984 66.1786 26L65.7946 25.112L67.5946 24.608C67.6106 23.984 67.6266 23.48 67.6426 23.096C67.6586 22.696 67.6666 22.336 67.6666 22.016C67.6826 21.696 67.6906 21.336 67.6906 20.936C67.6906 20.456 67.6826 20.048 67.6666 19.712C67.6666 19.36 67.6506 19 67.6186 18.632C67.5866 18.248 67.5466 17.776 67.4986 17.216L65.7226 16.928L65.4346 15.92C66.2346 15.888 67.0586 15.848 67.9066 15.8C68.7706 15.736 69.7226 15.632 70.7626 15.488ZM81.9706 15.56C82.9626 15.56 83.7466 15.904 84.3226 16.592C84.9146 17.28 85.2426 18.192 85.3066 19.328C85.3226 19.616 85.3226 20.064 85.3066 20.672C85.2906 21.264 85.2746 21.92 85.2586 22.64C85.2586 23.344 85.2666 24 85.2826 24.608L87.0586 25.112L86.6986 26C86.2666 25.968 85.7786 25.952 85.2346 25.952C84.7066 25.936 84.1546 25.928 83.5786 25.928C83.0346 25.928 82.5146 25.936 82.0186 25.952C81.5386 25.968 81.0906 25.984 80.6746 26L80.3386 25.112L82.0906 24.608C82.1226 24.064 82.1386 23.616 82.1386 23.264C82.1546 22.896 82.1626 22.536 82.1626 22.184C82.1786 21.816 82.1866 21.376 82.1866 20.864C82.1706 19.696 81.9706 18.904 81.5866 18.488C81.2186 18.056 80.6506 17.84 79.8826 17.84C79.1946 18.304 78.7066 18.88 78.4186 19.568C78.1466 20.24 78.0106 20.864 78.0106 21.44L77.1466 20.432C77.2586 19.504 77.5306 18.68 77.9626 17.96C78.4106 17.224 78.9786 16.64 79.6666 16.208C80.3546 15.776 81.1226 15.56 81.9706 15.56ZM96.7289 15.56C97.7049 15.56 98.4809 15.904 99.0569 16.592C99.6489 17.28 99.9769 18.192 100.041 19.328C100.073 19.616 100.081 20.064 100.065 20.672C100.049 21.264 100.033 21.92 100.017 22.64C100.017 23.344 100.017 24 100.017 24.608L101.793 25.112L101.457 26C101.025 25.968 100.537 25.952 99.9929 25.952C99.4649 25.936 98.9129 25.928 98.3369 25.928C97.7929 25.928 97.2729 25.936 96.7769 25.952C96.2809 25.968 95.8249 25.984 95.4089 26L95.0729 25.112L96.8489 24.608C96.8649 24.064 96.8809 23.616 96.8969 23.264C96.9129 22.896 96.9209 22.536 96.9209 22.184C96.9369 21.816 96.9369 21.376 96.9209 20.864C96.9049 19.696 96.7049 18.904 96.3209 18.488C95.9529 18.056 95.3929 17.84 94.6409 17.84C93.9369 18.304 93.4489 18.88 93.1769 19.568C92.9049 20.24 92.7769 20.864 92.7929 21.44L91.9049 20.432C92.0169 19.504 92.2889 18.68 92.7209 17.96C93.1529 17.224 93.7129 16.64 94.4009 16.208C95.1049 15.776 95.8809 15.56 96.7289 15.56ZM92.7929 15.488C92.7929 16.016 92.7929 16.456 92.7929 16.808C92.7929 17.144 92.7929 17.48 92.7929 17.816C92.7929 18.152 92.7849 18.592 92.7689 19.136L92.8169 24.608L94.5689 25.112L94.2569 26C93.7289 25.968 93.2089 25.952 92.6969 25.952C92.1849 25.936 91.6489 25.928 91.0889 25.928C90.5289 25.928 90.0249 25.936 89.5769 25.952C89.1449 25.968 88.6889 25.984 88.2089 26L87.8249 25.112L89.6249 24.608C89.6409 23.984 89.6569 23.48 89.6729 23.096C89.6889 22.696 89.6969 22.336 89.6969 22.016C89.7129 21.696 89.7209 21.336 89.7209 20.936C89.7209 20.456 89.7129 20.048 89.6969 19.712C89.6969 19.36 89.6809 19 89.6489 18.632C89.6169 18.248 89.5769 17.776 89.5289 17.216L87.7529 16.928L87.4649 15.92C88.2649 15.888 89.0889 15.848 89.9369 15.8C90.8009 15.736 91.7529 15.632 92.7929 15.488ZM104.001 15.56C104.993 15.56 105.777 15.904 106.353 16.592C106.945 17.28 107.273 18.192 107.337 19.328C107.353 19.616 107.353 20.064 107.337 20.672C107.321 21.264 107.305 21.92 107.289 22.64C107.289 23.344 107.297 24 107.313 24.608L109.089 25.112L108.729 26C108.297 25.968 107.809 25.952 107.265 25.952C106.737 25.936 106.185 25.928 105.609 25.928C105.065 25.928 104.545 25.936 104.049 25.952C103.569 25.968 103.121 25.984 102.705 26L102.369 25.112L104.121 24.608C104.153 24.064 104.169 23.616 104.169 23.264C104.185 22.896 104.193 22.536 104.193 22.184C104.209 21.816 104.217 21.376 104.217 20.864C104.201 19.696 104.001 18.904 103.617 18.488C103.249 18.056 102.681 17.84 101.913 17.84C101.225 18.304 100.737 18.88 100.449 19.568C100.177 20.24 100.041 20.864 100.041 21.44L99.1769 20.432C99.2889 19.504 99.5609 18.68 99.9929 17.96C100.441 17.224 101.009 16.64 101.697 16.208C102.385 15.776 103.153 15.56 104.001 15.56ZM114.799 15.512C115.599 15.512 116.335 15.688 117.007 16.04C117.695 16.392 118.239 16.928 118.639 17.648C119.055 18.352 119.263 19.24 119.263 20.312C118.911 20.376 118.447 20.432 117.871 20.48C117.295 20.528 116.663 20.568 115.975 20.6C115.287 20.616 114.599 20.624 113.911 20.624C113.399 20.624 112.959 20.616 112.591 20.6C112.223 20.584 111.975 20.568 111.847 20.552V19.4C112.023 19.4 112.287 19.4 112.639 19.4C113.007 19.4 113.415 19.392 113.863 19.376C114.311 19.36 114.743 19.336 115.159 19.304C115.591 19.272 115.951 19.232 116.239 19.184C116.223 18.848 116.127 18.512 115.951 18.176C115.791 17.824 115.543 17.528 115.207 17.288C114.871 17.048 114.439 16.928 113.911 16.928C113.591 17.232 113.335 17.656 113.143 18.2C112.951 18.728 112.855 19.344 112.855 20.048C112.855 21.488 113.151 22.552 113.743 23.24C114.351 23.912 115.095 24.248 115.975 24.248C116.871 24.248 117.815 23.928 118.807 23.288L119.335 24.392C118.647 25.016 117.911 25.464 117.127 25.736C116.343 26.008 115.567 26.144 114.799 26.144C113.903 26.144 113.063 25.952 112.279 25.568C111.511 25.168 110.887 24.576 110.407 23.792C109.943 23.008 109.711 22.032 109.711 20.864C109.711 19.68 109.951 18.696 110.431 17.912C110.927 17.112 111.559 16.512 112.327 16.112C113.111 15.712 113.935 15.512 114.799 15.512ZM125.085 15.584C125.101 15.952 125.125 16.384 125.157 16.88C125.189 17.376 125.221 17.832 125.253 18.248C125.285 18.648 125.301 18.92 125.301 19.064L125.469 24.512L127.845 25.112L127.485 26C127.213 25.984 126.853 25.976 126.405 25.976C125.957 25.96 125.493 25.952 125.013 25.952C124.533 25.936 124.101 25.928 123.717 25.928C123.221 25.928 122.685 25.936 122.109 25.952C121.533 25.968 121.005 25.984 120.525 26L120.165 25.112L122.109 24.608C122.109 23.888 122.109 23.248 122.109 22.688C122.109 22.112 122.109 21.488 122.109 20.816C122.109 20.448 122.101 20.112 122.085 19.808C122.085 19.488 122.077 19.136 122.061 18.752C122.045 18.352 122.013 17.864 121.965 17.288L120.333 17.024L119.997 16.016C120.365 16 120.853 15.976 121.461 15.944C122.085 15.912 122.725 15.864 123.381 15.8C124.037 15.736 124.605 15.664 125.085 15.584ZM128.301 15.536C128.749 15.536 129.165 15.624 129.549 15.8C129.933 15.96 130.301 16.224 130.653 16.592C130.557 17.072 130.469 17.488 130.389 17.84C130.309 18.192 130.213 18.544 130.101 18.896C130.005 19.232 129.885 19.648 129.741 20.144H128.397C128.285 19.552 128.117 19.04 127.893 18.608C127.685 18.16 127.397 17.856 127.029 17.696C126.629 17.952 126.245 18.432 125.877 19.136C125.525 19.824 125.349 20.744 125.349 21.896L124.413 20.504C124.541 19.608 124.789 18.784 125.157 18.032C125.525 17.28 125.973 16.68 126.501 16.232C127.045 15.768 127.645 15.536 128.301 15.536ZM141.226 24.344C140.682 24.84 140.034 25.264 139.282 25.616C138.546 25.968 137.698 26.144 136.738 26.144C135.586 26.144 134.618 25.888 133.834 25.376C133.066 24.864 132.49 24.208 132.106 23.408C131.722 22.608 131.53 21.768 131.53 20.888C131.53 19.992 131.73 19.136 132.13 18.32C132.53 17.504 133.13 16.84 133.93 16.328C134.746 15.8 135.778 15.536 137.026 15.536C137.698 15.536 138.354 15.616 138.994 15.776C139.65 15.92 140.274 16.176 140.866 16.544C140.642 17.376 140.482 18.064 140.386 18.608C140.29 19.136 140.194 19.64 140.098 20.12H138.898L138.538 17.936C138.138 17.6 137.682 17.336 137.17 17.144C136.658 16.952 136.146 16.872 135.634 16.904C135.298 17.304 135.034 17.776 134.842 18.32C134.666 18.864 134.578 19.424 134.578 20C134.578 20.864 134.73 21.608 135.034 22.232C135.338 22.856 135.738 23.344 136.234 23.696C136.746 24.032 137.298 24.2 137.89 24.2C138.29 24.2 138.714 24.12 139.162 23.96C139.626 23.784 140.098 23.52 140.578 23.168L141.226 24.344ZM146.835 15.512C147.635 15.512 148.371 15.688 149.043 16.04C149.731 16.392 150.275 16.928 150.675 17.648C151.091 18.352 151.299 19.24 151.299 20.312C150.947 20.376 150.483 20.432 149.907 20.48C149.331 20.528 148.699 20.568 148.011 20.6C147.323 20.616 146.635 20.624 145.947 20.624C145.435 20.624 144.995 20.616 144.627 20.6C144.259 20.584 144.011 20.568 143.883 20.552V19.4C144.059 19.4 144.323 19.4 144.675 19.4C145.043 19.4 145.451 19.392 145.899 19.376C146.347 19.36 146.779 19.336 147.195 19.304C147.627 19.272 147.987 19.232 148.275 19.184C148.259 18.848 148.163 18.512 147.987 18.176C147.827 17.824 147.579 17.528 147.243 17.288C146.907 17.048 146.475 16.928 145.947 16.928C145.627 17.232 145.371 17.656 145.179 18.2C144.987 18.728 144.891 19.344 144.891 20.048C144.891 21.488 145.187 22.552 145.779 23.24C146.387 23.912 147.131 24.248 148.011 24.248C148.907 24.248 149.851 23.928 150.843 23.288L151.371 24.392C150.683 25.016 149.947 25.464 149.163 25.736C148.379 26.008 147.603 26.144 146.835 26.144C145.939 26.144 145.099 25.952 144.315 25.568C143.547 25.168 142.923 24.576 142.443 23.792C141.979 23.008 141.747 22.032 141.747 20.864C141.747 19.68 141.987 18.696 142.467 17.912C142.963 17.112 143.595 16.512 144.363 16.112C145.147 15.712 145.971 15.512 146.835 15.512Z" fill="white"/>
</svg>
