<svg width="21" height="20" viewBox="0 0 21 20" fill="none" xmlns="http://www.w3.org/2000/svg">
<path d="M9.50637 11.0554C9.3872 11.0554 9.26804 11.0279 9.15804 10.9638L1.06392 6.27959C0.733915 6.08709 0.623897 5.6654 0.816397 5.3354C1.0089 5.0054 1.4214 4.89538 1.76056 5.08788L9.50637 9.57035L17.2064 5.11541C17.5364 4.92291 17.958 5.04209 18.1505 5.36293C18.343 5.69293 18.2239 6.11457 17.903 6.30707L9.86396 10.9638C9.7448 11.0188 9.62554 11.0554 9.50637 11.0554Z" fill="#E7F4F3"/>
<path d="M9.50586 19.3591C9.13003 19.3591 8.81836 19.0474 8.81836 18.6716V10.3574C8.81836 9.98159 9.13003 9.66992 9.50586 9.66992C9.88169 9.66992 10.1934 9.98159 10.1934 10.3574V18.6716C10.1934 19.0474 9.88169 19.3591 9.50586 19.3591Z" fill="#E7F4F3"/>
<path d="M9.50585 19.7175C8.69919 19.7175 7.89252 19.5433 7.26917 19.1858L2.37417 16.4726C1.045 15.7392 0 13.97 0 12.4483V7.25998C0 5.73831 1.045 3.97836 2.37417 3.23586L7.26917 0.5225C8.51585 -0.174167 10.4775 -0.174167 11.7334 0.5225L16.6284 3.23586C17.9575 3.96919 19.0025 5.73831 19.0025 7.25998V12.4483C19.0025 12.5125 19.0025 12.6041 18.975 12.7233C18.92 12.9616 18.7459 13.1541 18.5167 13.2275C18.2875 13.3008 18.0309 13.2551 17.8475 13.0901C16.8025 12.1734 15.1709 12.1366 14.0525 13.0258C13.3467 13.585 12.9342 14.4375 12.9342 15.345C12.9342 15.8858 13.0809 16.4176 13.365 16.8759C13.4384 17.0042 13.5117 17.105 13.5942 17.1966C13.7317 17.3525 13.7867 17.5633 13.75 17.765C13.7134 17.9666 13.585 18.1501 13.4017 18.2417L11.7242 19.1676C11.11 19.5434 10.3125 19.7175 9.50585 19.7175ZM9.50585 1.38418C8.93752 1.38418 8.36002 1.50334 7.94752 1.73251L3.05249 4.44586C2.16332 4.94086 1.39332 6.25165 1.39332 7.25998V12.4483C1.39332 13.4566 2.17249 14.7767 3.05249 15.2626L7.94752 17.9758C8.78168 18.4433 10.2392 18.4433 11.0734 17.9758L12.1 17.4075C11.7609 16.7933 11.5775 16.0783 11.5775 15.345C11.5775 14.0066 12.1734 12.7692 13.2092 11.9442C14.465 10.9451 16.2434 10.7341 17.6367 11.3391V7.25086C17.6367 6.24253 16.8575 4.92252 15.9775 4.43668L11.0825 1.72333C10.6517 1.50333 10.0742 1.38418 9.50585 1.38418Z" fill="#E7F4F3"/>
<path d="M15.9225 19.7171C13.5209 19.7171 11.5684 17.7646 11.5684 15.363C11.5684 14.0246 12.1642 12.7871 13.2 11.9621C13.97 11.348 14.9417 11.0088 15.9225 11.0088C18.3242 11.0088 20.2767 12.9613 20.2767 15.363C20.2767 16.6096 19.7359 17.8013 18.7917 18.6263C17.9942 19.3321 16.9767 19.7171 15.9225 19.7171ZM15.9225 12.3838C15.2442 12.3838 14.6025 12.613 14.0617 13.0438C13.3559 13.603 12.9434 14.4555 12.9434 15.363C12.9434 17.0038 14.2817 18.3421 15.9225 18.3421C16.6375 18.3421 17.3342 18.0763 17.8934 17.5996C18.535 17.0313 18.9017 16.2246 18.9017 15.363C18.9017 13.7221 17.5634 12.3838 15.9225 12.3838Z" fill="#E7F4F3"/>
<path d="M15.0061 16.9673C14.7769 16.9673 14.5477 16.8481 14.4194 16.6373C14.2269 16.3073 14.3277 15.8856 14.6577 15.6931L15.4736 15.2073V14.2173C15.4736 13.8415 15.7852 13.5298 16.1611 13.5298C16.5369 13.5298 16.8486 13.8415 16.8486 14.2173V15.5923C16.8486 15.8306 16.7202 16.0598 16.5186 16.179L15.3727 16.8665C15.2444 16.9398 15.1252 16.9673 15.0061 16.9673Z" fill="#E7F4F3"/>
</svg>
