<svg width="18" height="14" viewBox="0 0 18 14" fill="none" xmlns="http://www.w3.org/2000/svg">
<path d="M12.65 9.9C12.5041 9.9 12.3642 9.95795 12.2611 10.0611C12.1579 10.1642 12.1 10.3041 12.1 10.45C12.1 10.5959 12.1579 10.7358 12.2611 10.8389C12.3642 10.9421 12.5041 11 12.65 11H14.85C14.9959 11 15.1358 10.9421 15.2389 10.8389C15.3421 10.7358 15.4 10.5959 15.4 10.45C15.4 10.3041 15.3421 10.1642 15.2389 10.0611C15.1358 9.95795 14.9959 9.9 14.85 9.9H12.65ZM0 3.025C0 2.22272 0.318705 1.4533 0.886002 0.886002C1.4533 0.318704 2.22272 0 3.025 0H14.575C15.3773 0 16.1467 0.318704 16.714 0.886002C17.2813 1.4533 17.6 2.22272 17.6 3.025V10.175C17.6 10.9773 17.2813 11.7467 16.714 12.314C16.1467 12.8813 15.3773 13.2 14.575 13.2H3.025C2.22272 13.2 1.4533 12.8813 0.886002 12.314C0.318705 11.7467 0 10.9773 0 10.175V3.025ZM3.025 1.1C2.51446 1.1 2.02483 1.30281 1.66382 1.66382C1.30281 2.02483 1.1 2.51446 1.1 3.025V4.4H16.5V3.025C16.5 2.51446 16.2972 2.02483 15.9362 1.66382C15.5752 1.30281 15.0855 1.1 14.575 1.1H3.025ZM16.5 5.5H1.1V10.175C1.1 11.2376 1.9624 12.1 3.025 12.1H14.575C15.0855 12.1 15.5752 11.8972 15.9362 11.5362C16.2972 11.1752 16.5 10.6855 16.5 10.175V5.5Z" fill="#E7F4F3"/>
</svg>
