<svg width="22" height="22" viewBox="0 0 22 22" fill="none" xmlns="http://www.w3.org/2000/svg">
<path d="M14.8502 14.3C14.7043 14.3 14.5644 14.358 14.4613 14.4611C14.3581 14.5643 14.3002 14.7042 14.3002 14.85C14.3002 14.9959 14.3581 15.1358 14.4613 15.2389C14.5644 15.3421 14.7043 15.4 14.8502 15.4H17.0502C17.1961 15.4 17.336 15.3421 17.4391 15.2389C17.5422 15.1358 17.6002 14.9959 17.6002 14.85C17.6002 14.7042 17.5422 14.5643 17.4391 14.4611C17.336 14.358 17.1961 14.3 17.0502 14.3H14.8502ZM2.2002 7.42502C2.2002 6.62274 2.5189 5.85332 3.0862 5.28603C3.65349 4.71873 4.42292 4.40002 5.2252 4.40002H16.7752C17.5775 4.40002 18.3469 4.71873 18.9142 5.28603C19.4815 5.85332 19.8002 6.62274 19.8002 7.42502V14.575C19.8002 15.3773 19.4815 16.1467 18.9142 16.714C18.3469 17.2813 17.5775 17.6 16.7752 17.6H5.2252C4.42292 17.6 3.65349 17.2813 3.0862 16.714C2.5189 16.1467 2.2002 15.3773 2.2002 14.575V7.42502ZM5.2252 5.50002C4.71465 5.50002 4.22502 5.70284 3.86401 6.06384C3.50301 6.42485 3.3002 6.91448 3.3002 7.42502V8.80002H18.7002V7.42502C18.7002 6.91448 18.4974 6.42485 18.1364 6.06384C17.7754 5.70284 17.2857 5.50002 16.7752 5.50002H5.2252ZM18.7002 9.90002H3.3002V14.575C3.3002 15.6376 4.1626 16.5 5.2252 16.5H16.7752C17.2857 16.5 17.7754 16.2972 18.1364 15.9362C18.4974 15.5752 18.7002 15.0856 18.7002 14.575V9.90002Z" fill="#E7F4F3"/>
</svg>
