<svg width="18" height="20" viewBox="0 0 18 20" fill="none" xmlns="http://www.w3.org/2000/svg">
<path d="M6.61223 2.26609C6.81558 1.35102 7.6272 0.699951 8.5646 0.699951H9.35592C10.2933 0.699951 11.1049 1.35102 11.3083 2.26609L11.5112 3.1793C12.1723 3.43814 12.7845 3.79462 13.33 4.231L14.2241 3.94956C15.1183 3.66813 16.0879 4.04549 16.5566 4.8573L16.9523 5.54259C17.421 6.3544 17.263 7.38283 16.5722 8.01647L15.882 8.64956C15.9335 8.99219 15.9603 9.34295 15.9603 9.69995C15.9603 10.0569 15.9335 10.4077 15.882 10.7503L16.5722 11.3834C17.263 12.0171 17.421 13.0455 16.9523 13.8573L16.5567 14.5426C16.088 15.3544 15.1183 15.7318 14.2242 15.4503L13.33 15.1689C12.7845 15.6053 12.1724 15.9618 11.5112 16.2206L11.3083 17.1338C11.1049 18.0489 10.2933 18.7 9.35592 18.7H8.5646C7.6272 18.7 6.81558 18.0489 6.61223 17.1338L6.40929 16.2206C5.74816 15.9618 5.136 15.6053 4.59055 15.1689L3.69635 15.4503C2.80219 15.7318 1.83254 15.3544 1.36384 14.5426L0.968187 13.8573C0.499489 13.0455 0.657513 12.0171 1.34832 11.3834L2.03854 10.7503C1.98698 10.4077 1.96026 10.0569 1.96026 9.69995C1.96026 9.34295 1.98698 8.9922 2.03854 8.64957L1.34833 8.01648C0.657527 7.38283 0.499502 6.35441 0.968201 5.5426L1.36386 4.8573C1.83256 4.04549 2.80221 3.66814 3.69636 3.94957L4.59055 4.23101C5.13601 3.79462 5.74816 3.43814 6.40929 3.1793L6.61223 2.26609Z" stroke="#E7F4F3" stroke-width="1.4" stroke-linecap="round" stroke-linejoin="round"/>
<path d="M9.96024 9.69995C9.96024 10.2522 9.51252 10.7 8.96024 10.7C8.40795 10.7 7.96024 10.2522 7.96024 9.69995C7.96024 9.14767 8.40795 8.69995 8.96024 8.69995C9.51252 8.69995 9.96024 9.14767 9.96024 9.69995Z" stroke="#E7F4F3" stroke-width="1.4" stroke-linecap="round" stroke-linejoin="round"/>
</svg>
