<svg width="22" height="22" viewBox="0 0 22 22" fill="none" xmlns="http://www.w3.org/2000/svg">
<g clip-path="url(#clip0_2778_235)">
<mask id="mask0_2778_235" style="mask-type:luminance" maskUnits="userSpaceOnUse" x="0" y="0" width="22" height="22">
<path d="M22 0L0 0L0 22H22V0Z" fill="white"/>
</mask>
<g mask="url(#mask0_2778_235)">
<path d="M15.996 20.8542C14.9602 20.8542 13.8693 20.6067 12.7418 20.13C11.6418 19.6625 10.5327 19.0209 9.451 18.2417C8.3785 17.4534 7.34266 16.5734 6.36183 15.6109C5.39016 14.63 4.51016 13.5942 3.731 12.5309C2.94266 11.4309 2.31016 10.3309 1.861 9.26754C1.38433 8.13087 1.146 7.03087 1.146 5.99504C1.146 5.28004 1.27433 4.60171 1.52183 3.96921C1.7785 3.31837 2.191 2.71337 2.75016 2.19087C3.456 1.49421 4.26266 1.14587 5.12433 1.14587C5.48183 1.14587 5.8485 1.22837 6.16016 1.37504C6.51766 1.54004 6.82016 1.78754 7.04016 2.11754L9.16683 5.11504C9.35933 5.38087 9.506 5.63754 9.60683 5.89421C9.726 6.16921 9.79016 6.44421 9.79016 6.71004C9.79016 7.05837 9.68933 7.39754 9.49683 7.71837C9.35933 7.96587 9.1485 8.23171 8.88266 8.49754L8.25933 9.14837C8.2685 9.17587 8.27766 9.19421 8.28683 9.21254C8.39683 9.40504 8.61683 9.73504 9.0385 10.23C9.48766 10.7434 9.90933 11.2109 10.331 11.6417C10.8718 12.1734 11.321 12.595 11.7427 12.9434C12.2652 13.3834 12.6043 13.6034 12.806 13.7042L12.7877 13.75L13.4568 13.09C13.741 12.8059 14.016 12.595 14.2818 12.4575C14.786 12.1459 15.4277 12.0909 16.0693 12.3567C16.3077 12.4575 16.5643 12.595 16.8393 12.7875L19.8827 14.9509C20.2218 15.18 20.4693 15.4734 20.616 15.8217C20.7535 16.17 20.8177 16.4909 20.8177 16.8117C20.8177 17.2517 20.7168 17.6917 20.5243 18.1042C20.3318 18.5167 20.0935 18.8742 19.791 19.2042C19.2685 19.7817 18.7002 20.1942 18.0402 20.46C17.4077 20.7167 16.7202 20.8542 15.996 20.8542ZM5.12433 2.52087C4.62016 2.52087 4.15266 2.74087 3.7035 3.18087C3.28183 3.57504 2.9885 4.00587 2.80516 4.47337C2.61266 4.95004 2.521 5.45421 2.521 5.99504C2.521 6.84754 2.72266 7.77337 3.126 8.72671C3.5385 9.69837 4.116 10.7067 4.84933 11.715C5.58266 12.7234 6.41683 13.7042 7.3335 14.63C8.25016 15.5375 9.24016 16.3809 10.2577 17.1234C11.2477 17.8475 12.2652 18.4342 13.2735 18.8559C14.841 19.525 16.3077 19.6809 17.5177 19.1767C17.9852 18.9842 18.3977 18.6909 18.7735 18.2692C18.9843 18.04 19.1493 17.7925 19.2868 17.4992C19.3968 17.27 19.4518 17.0317 19.4518 16.7934C19.4518 16.6467 19.4243 16.5 19.351 16.335C19.3235 16.28 19.2685 16.1792 19.0943 16.06L16.051 13.8967C15.8677 13.7684 15.7027 13.6767 15.5468 13.6125C15.3452 13.53 15.2627 13.4475 14.951 13.64C14.7677 13.7317 14.6027 13.8692 14.4193 14.0525L13.7227 14.74C13.3652 15.0884 12.8152 15.1709 12.3935 15.015L12.146 14.905C11.7702 14.7034 11.3302 14.3917 10.8443 13.9792C10.4043 13.6034 9.92766 13.1634 9.35016 12.595C8.901 12.1367 8.45183 11.6509 7.98433 11.11C7.5535 10.6059 7.24183 10.175 7.04933 9.81754L6.93933 9.54254C6.88433 9.33171 6.866 9.21254 6.866 9.08421C6.866 8.75421 6.98516 8.46087 7.21433 8.23171L7.90183 7.51671C8.08516 7.33337 8.22266 7.15921 8.31433 7.00337C8.38766 6.88421 8.41516 6.78337 8.41516 6.69171C8.41516 6.61837 8.38766 6.50837 8.34183 6.39837C8.27766 6.25171 8.17683 6.08671 8.0485 5.91254L5.92183 2.90587C5.83016 2.77754 5.72016 2.68587 5.58266 2.62171C5.436 2.55754 5.28016 2.52087 5.12433 2.52087ZM12.7877 13.7592L12.641 14.3825L12.8885 13.7409C12.8427 13.7317 12.806 13.7409 12.7877 13.7592Z" fill="white"/>
</g>
</g>
<defs>
<clipPath id="clip0_2778_235">
<rect width="22" height="22" fill="white"/>
</clipPath>
</defs>
</svg>
