<svg width="24" height="24" viewBox="0 0 24 24" fill="none" xmlns="http://www.w3.org/2000/svg">
<mask id="mask0_2778_247" style="mask-type:luminance" maskUnits="userSpaceOnUse" x="0" y="0" width="22" height="22">
<path d="M22 0H0V22H22V0Z" fill="white"/>
</mask>
<g mask="url(#mask0_2778_247)">
<path d="M15.5835 16.8937H11.9168L7.83765 19.6071C7.23265 20.0104 6.41683 19.5797 6.41683 18.8463V16.8937C3.66683 16.8937 1.8335 15.0604 1.8335 12.3104V6.81038C1.8335 4.06038 3.66683 2.22705 6.41683 2.22705H15.5835C18.3335 2.22705 20.1668 4.06038 20.1668 6.81038V12.3104C20.1668 15.0604 18.3335 16.8937 15.5835 16.8937Z" stroke="#E7F4F3" stroke-width="1.5" stroke-miterlimit="10" stroke-linecap="round" stroke-linejoin="round"/>
<path d="M11.0002 10.4126V10.2201C11.0002 9.59678 11.3852 9.26678 11.7702 9.00095C12.146 8.74428 12.5218 8.41429 12.5218 7.80929C12.5218 6.96596 11.8435 6.2876 11.0002 6.2876C10.1568 6.2876 9.47852 6.96596 9.47852 7.80929" stroke="#E7F4F3" stroke-width="1.5" stroke-linecap="round" stroke-linejoin="round"/>
<path d="M10.9956 12.604H11.0046" stroke="#E7F4F3" stroke-width="1.5" stroke-linecap="round" stroke-linejoin="round"/>
</g>
</svg>
